<svg width="30" height="29" viewBox="0 0 30 29" fill="none" xmlns="http://www.w3.org/2000/svg">
<path d="M27.9375 0.62793H2.0625C1.44023 0.62793 0.9375 1.13066 0.9375 1.75293V27.6279C0.9375 28.2502 1.44023 28.7529 2.0625 28.7529H27.9375C28.5598 28.7529 29.0625 28.2502 29.0625 27.6279V1.75293C29.0625 1.13066 28.5598 0.62793 27.9375 0.62793ZM9.28008 24.5939H5.10703V11.1713H9.28008V24.5939ZM7.19531 9.33613C6.71693 9.33613 6.24929 9.19427 5.85153 8.9285C5.45377 8.66272 5.14375 8.28497 4.96068 7.843C4.77761 7.40103 4.72971 6.9147 4.82304 6.44551C4.91637 5.97632 5.14673 5.54534 5.485 5.20707C5.82327 4.8688 6.25425 4.63844 6.72344 4.54511C7.19263 4.45178 7.67896 4.49968 8.12093 4.68275C8.5629 4.86582 8.94065 5.17584 9.20643 5.5736C9.47221 5.97136 9.61406 6.439 9.61406 6.91738C9.61055 8.25332 8.52773 9.33613 7.19531 9.33613ZM24.9035 24.5939H20.734V18.0654C20.734 16.508 20.7059 14.5076 18.5648 14.5076C16.3957 14.5076 16.0617 16.2021 16.0617 17.9529V24.5939H11.8957V11.1713H15.8965V13.0064H15.9527C16.5082 11.9518 17.8688 10.8373 19.9008 10.8373C24.1266 10.8373 24.9035 13.6182 24.9035 17.2322V24.5939Z" fill="#1890FF"/>
</svg>
