<svg width="22" height="23" viewBox="0 0 22 23" fill="none" xmlns="http://www.w3.org/2000/svg">
<path d="M20.9999 16.5283V19.5283C21.0011 19.8068 20.944 20.0824 20.8324 20.3376C20.7209 20.5928 20.5572 20.8218 20.352 21.0101C20.1468 21.1984 19.9045 21.3417 19.6407 21.431C19.3769 21.5202 19.0973 21.5533 18.8199 21.5283C15.7428 21.1939 12.7869 20.1424 10.1899 18.4583C7.77376 16.9229 5.72527 14.8744 4.18993 12.4583C2.49991 9.84946 1.44818 6.87925 1.11993 3.78825C1.09494 3.51172 1.12781 3.23301 1.21643 2.96988C1.30506 2.70674 1.4475 2.46494 1.6347 2.25987C1.82189 2.0548 2.04974 1.89096 2.30372 1.77877C2.55771 1.66659 2.83227 1.60851 3.10993 1.60825H6.10993C6.59524 1.60347 7.06572 1.77533 7.43369 2.09178C7.80166 2.40824 8.04201 2.8477 8.10993 3.32825C8.23656 4.28832 8.47138 5.23098 8.80993 6.13825C8.94448 6.49618 8.9736 6.88517 8.89384 7.25913C8.81408 7.6331 8.6288 7.97636 8.35993 8.24825L7.08993 9.51825C8.51349 12.0218 10.5864 14.0947 13.0899 15.5183L14.3599 14.2483C14.6318 13.9794 14.9751 13.7941 15.3491 13.7143C15.723 13.6346 16.112 13.6637 16.4699 13.7983C17.3772 14.1368 18.3199 14.3716 19.2799 14.4983C19.7657 14.5668 20.2093 14.8115 20.5265 15.1857C20.8436 15.56 21.0121 16.0378 20.9999 16.5283Z" stroke="black" stroke-width="2" stroke-linecap="round" stroke-linejoin="round"/>
</svg>
