<svg width="31" height="25" viewBox="0 0 31 25" fill="none" xmlns="http://www.w3.org/2000/svg">
<path d="M30.5 3.5333C29.6646 4.75709 28.6397 5.80032 27.4253 6.66297C27.4373 6.89433 27.4433 7.15583 27.4433 7.44746C27.4433 9.06783 27.2034 10.6902 26.7237 12.3144C26.2439 13.9388 25.5111 15.4935 24.5252 16.9787C23.5393 18.4639 22.3649 19.7796 21.002 20.9259C19.6392 22.0722 18.0009 22.9862 16.0873 23.6679C14.1737 24.3496 12.1229 24.6905 9.93472 24.6905C6.51978 24.6905 3.37495 23.7825 0.500244 21.9666C1.01047 22.0225 1.49982 22.0505 1.9683 22.0505C4.8212 22.0505 7.36931 21.1851 9.61261 19.4543C8.28242 19.4302 7.09114 19.027 6.03876 18.2444C4.98639 17.4619 4.26217 16.462 3.8661 15.2447C4.25758 15.3182 4.64397 15.3549 5.02525 15.3549C5.57408 15.3549 6.11411 15.2844 6.64536 15.1434C5.22581 14.8634 4.04816 14.1671 3.11243 13.0544C2.17673 11.9418 1.70889 10.6576 1.70889 9.20189V9.12686C2.58022 9.602 3.50963 9.85473 4.49712 9.88507C3.65618 9.33294 2.98945 8.61295 2.49691 7.72509C2.00435 6.83724 1.75806 5.87642 1.75806 4.84265C1.75806 3.75236 2.03547 2.73709 2.5903 1.79685C4.13404 3.66257 6.00461 5.1537 8.202 6.27026C10.3994 7.38684 12.7568 8.00695 15.2742 8.1306C15.1669 7.68991 15.1131 7.23003 15.1129 6.75096C15.1129 5.07822 15.714 3.64995 16.9161 2.46614C18.1182 1.28233 19.5685 0.69043 21.267 0.69043C23.0452 0.69043 24.5431 1.32812 25.7605 2.60349C27.1514 2.33215 28.4538 1.84136 29.6677 1.13112C29.2 2.58056 28.2989 3.6987 26.9643 4.48555C28.1909 4.342 29.3695 4.02458 30.5 3.5333H30.5Z" fill="#1890FF"/>
</svg>
